<?xml version="1.0" standalone="no"?>
<!DOCTYPE svg PUBLIC "-//W3C//DTD SVG 20010904//EN"
 "http://www.w3.org/TR/2001/REC-SVG-20010904/DTD/svg10.dtd">
<svg version="1.0" xmlns="http://www.w3.org/2000/svg"
 width="180.000000pt" height="180.000000pt" viewBox="0 0 180.000000 180.000000"
 preserveAspectRatio="xMidYMid meet">

<g transform="translate(0.000000,180.000000) scale(0.100000,-0.100000)"
fill="#bf9292" stroke="none">
<path d="M798 1133 c-13 -16 -35 -43 -47 -60 -21 -31 -26 -33 -84 -34 -55 -2
-52 -3 33 -10 141 -12 151 -18 20 -10 -182 10 -220 8 -299 -18 -111 -37 -207
-108 -173 -130 7 -4 10 -14 7 -23 -3 -8 0 -19 7 -25 18 -14 114 -45 168 -54
25 -4 79 -17 120 -28 41 -12 116 -24 165 -27 80 -6 93 -10 120 -34 17 -15 37
-28 45 -28 8 0 25 -4 37 -7 24 -8 48 23 40 53 -4 13 -5 12 -6 -4 -3 -50 -54
-49 -57 0 0 14 3 23 8 20 4 -3 6 -9 3 -14 -3 -5 -1 -11 3 -14 5 -3 8 7 6 22
-3 39 -3 39 -23 15 -12 -15 -22 -18 -32 -12 -8 5 -44 9 -81 9 -73 0 -184 20
-246 45 l-40 17 20 34 c14 24 19 44 14 67 l-5 32 16 -30 c15 -27 17 -28 23
-10 27 71 119 79 295 26 99 -30 127 -34 277 -40 92 -3 173 -2 180 2 15 10 68
-8 68 -23 0 -5 -10 -12 -22 -14 -13 -3 -91 -21 -174 -40 -83 -19 -170 -38
-192 -42 -23 -4 -40 -10 -37 -14 2 -4 45 2 94 13 l89 20 41 -32 c22 -18 49
-31 58 -29 10 2 31 27 46 56 27 50 30 52 70 52 33 0 58 -11 111 -45 39 -25 75
-44 80 -42 7 2 11 63 11 173 0 161 -1 169 -20 172 -12 2 -41 -15 -73 -42 -91
-78 -106 -86 -161 -86 -52 0 -61 6 -39 28 9 9 9 15 0 24 -9 9 -21 7 -51 -10
l-39 -22 -91 21 c-50 11 -91 25 -91 30 0 5 -12 15 -27 23 -36 18 -63 43 -97
89 -16 20 -31 37 -35 37 -4 0 -19 -12 -33 -27z m76 -39 c21 -25 53 -55 70 -65
l31 -20 -30 5 c-16 2 -31 5 -32 5 -2 1 -5 0 -7 -1 -2 -2 -13 5 -24 15 -21 19
-60 20 -75 2 -5 -6 -7 -4 -4 6 3 9 -1 16 -8 16 -7 0 -12 -5 -11 -11 2 -6 1 -8
-1 -3 -3 4 -9 4 -15 1 -6 -4 -5 3 2 15 6 12 15 19 20 16 5 -3 12 -1 15 5 4 6
3 10 -2 9 -23 -4 -24 3 -3 26 13 14 26 25 30 25 3 0 23 -21 44 -46z m670 -101
c-10 -81 -10 -109 1 -190 7 -56 6 -63 -9 -63 -23 0 -67 30 -60 41 3 5 -3 6
-13 3 -17 -5 -17 -5 -1 9 13 10 15 16 6 25 -9 9 -8 12 5 12 25 0 21 18 -5 23
-23 4 -23 4 2 15 24 10 24 11 3 11 -25 1 -43 21 -18 21 9 0 14 4 10 9 -3 5 0
11 7 14 7 2 0 2 -17 0 -20 -3 -26 -1 -17 5 11 8 11 10 -1 15 -24 9 -9 57 16
57 7 0 3 -7 -7 -15 -11 -8 -15 -15 -9 -15 13 0 35 25 27 32 -7 8 55 58 73 58
13 0 14 -10 7 -67z m-966 20 c-10 -2 -26 -2 -35 0 -10 3 -2 5 17 5 19 0 27 -2
18 -5z m-88 -13 c-34 -11 -60 -11 -35 0 11 5 29 8 40 8 16 0 15 -2 -5 -8z
m403 3 c-7 -2 -21 -2 -30 0 -10 3 -4 5 12 5 17 0 24 -2 18 -5z m92 -13 c27 -7
27 -8 5 -8 -14 0 -38 4 -55 8 -27 7 -27 8 -5 8 14 0 39 -4 55 -8z m-395 -10
c0 -5 -2 -10 -4 -10 -3 0 -8 5 -11 10 -3 6 -1 10 4 10 6 0 11 -4 11 -10z
m-200 -10 c-8 -5 -19 -10 -25 -10 -5 0 -3 5 5 10 8 5 20 10 25 10 6 0 3 -5 -5
-10z m685 0 c25 -11 -1 -11 -35 0 -20 6 -21 8 -5 8 11 0 29 -3 40 -8z m-145
-10 c0 -5 -2 -10 -4 -10 -3 0 -8 5 -11 10 -3 6 -1 10 4 10 6 0 11 -4 11 -10z
m-580 -5 c0 -2 -10 -9 -22 -15 -22 -11 -22 -10 -4 4 21 17 26 19 26 11z m820
-5 c20 -6 21 -8 5 -8 -11 0 -31 4 -45 8 -20 6 -21 8 -5 8 11 0 31 -4 45 -8z
m-720 -122 c-11 -22 -10 -22 4 -4 9 11 16 30 16 42 0 13 8 24 20 27 16 4 20 0
20 -21 0 -15 -9 -42 -20 -59 -24 -39 -53 -42 -119 -13 -24 11 -54 20 -67 20
-35 0 -38 17 -4 22 17 3 39 -2 51 -10 23 -16 49 -10 49 12 0 16 -38 42 -47 33
-2 -3 5 -8 16 -12 12 -3 21 -10 21 -15 0 -14 -18 -21 -25 -10 -3 5 -31 17 -61
26 -29 8 -54 17 -54 18 0 1 12 13 27 27 14 13 23 19 20 13 -4 -7 0 -14 8 -18
8 -3 15 0 15 7 0 8 4 7 10 -3 5 -8 21 -15 37 -16 15 -1 29 -3 31 -4 1 -1 7 -3
12 -4 6 0 15 -8 21 -16 8 -11 9 -8 5 13 -4 15 -2 27 4 27 5 0 11 8 12 18 1 9
3 -4 5 -30 2 -26 -1 -58 -7 -70z m783 105 c-7 -2 -19 -2 -25 0 -7 3 -2 5 12 5
14 0 19 -2 13 -5z m-853 -13 c0 -5 -2 -10 -4 -10 -3 0 -8 5 -11 10 -3 6 -1 10
4 10 6 0 11 -4 11 -10z m984 4 c9 -3 16 -11 16 -16 0 -7 -4 -7 -13 0 -7 6 -37
12 -67 15 l-55 3 52 2 c28 1 58 -1 67 -4z m-84 -148 c0 -8 -11 -27 -24 -42
-23 -28 -24 -28 -51 -10 -26 17 -26 18 -9 37 9 10 19 17 21 15 3 -3 30 3 61
13 1 1 2 -5 2 -13z"/>
<path d="M485 849 c-4 -6 -5 -12 -2 -15 2 -3 7 2 10 11 7 17 1 20 -8 4z"/>
<path d="M1199 753 c-13 -16 -12 -17 4 -4 9 7 17 15 17 17 0 8 -8 3 -21 -13z"/>
<path d="M610 900 c0 -5 5 -10 11 -10 5 0 7 5 4 10 -3 6 -8 10 -11 10 -2 0 -4
-4 -4 -10z"/>
<path d="M635 863 c-48 -10 -73 -26 -77 -47 -9 -48 71 -63 116 -21 14 13 26
28 26 34 0 5 -13 -4 -29 -20 -19 -18 -40 -29 -58 -29 l-28 0 25 18 c28 19 37
42 18 43 -7 0 -2 5 11 10 13 5 33 7 45 4 17 -5 18 -4 6 4 -16 11 -22 12 -55 4z"/>
<path d="M895 850 c-3 -5 -1 -10 4 -10 6 0 11 5 11 10 0 6 -2 10 -4 10 -3 0
-8 -4 -11 -10z"/>
<path d="M1065 840 c3 -5 8 -10 11 -10 2 0 4 5 4 10 0 6 -5 10 -11 10 -5 0 -7
-4 -4 -10z"/>
<path d="M745 820 c3 -5 8 -10 11 -10 2 0 4 5 4 10 0 6 -5 10 -11 10 -5 0 -7
-4 -4 -10z"/>
</g>
</svg>
